{
  "accessors": [
    {
      "bufferView": 2,
      "componentType": 5126,
      "count": 30838,
      "max": [
        0.4926240146160126,
        1.9001729488372803,
        0.19224399328231812
      ],
      "min": [
        -0.4926240146160126,
        0.003975000232458115,
        -0.22482700645923615
      ],
      "type": "VEC3"
    },
    {
      "bufferView": 2,
      "byteOffset": 370056,
      "componentType": 5126,
      "count": 30838,
      "max": [
        0.9999923706054688,
        0.9999457597732544,
        1.0
      ],
      "min": [
        -0.9999923706054688,
        -0.9999903440475464,
        -0.9999322295188904
      ],
      "type": "VEC3"
    },
    {
      "bufferView": 3,
      "componentType": 5126,
      "count": 30838,
      "max": [
        0.9999980926513672,
        0.9999915361404419,
        0.9999985694885254,
        1.0
      ],
      "min": [
        -0.9999932050704956,
        -0.9999969601631165,
        -0.9999916553497314,
        -1.0
      ],
      "type": "VEC4"
    },
    {
      "bufferView": 1,
      "componentType": 5126,
      "count": 30838,
      "max": [
        0.9995120167732239,
        0.9946290254592896
      ],
      "min": [
        0.000506000011228025,
        0.000506000011228025
      ],
      "type": "VEC2"
    },
    {
      "bufferView": 0,
      "componentType": 5125,
      "count": 165126,
      "type": "SCALAR"
    }
  ],
  "asset": {
    "extras": {
      "author": "Marcylicious (https://sketchfab.com/Marcylicious)",
      "license": "CC-BY-4.0 (http://creativecommons.org/licenses/by/4.0/)",
      "source": "https://sketchfab.com/3d-models/homelander-419094c59bee4a469dc5efaf8c1e5e8e",
      "title": "Homelander"
    },
    "generator": "Sketchfab-16.16.0",
    "version": "2.0"
  },
  "bufferViews": [
    {
      "buffer": 0,
      "byteLength": 660504,
      "name": "floatBufferViews",
      "target": 34963
    },
    {
      "buffer": 0,
      "byteLength": 246704,
      "byteOffset": 660504,
      "byteStride": 8,
      "name": "floatBufferViews",
      "target": 34962
    },
    {
      "buffer": 0,
      "byteLength": 740112,
      "byteOffset": 907208,
      "byteStride": 12,
      "name": "floatBufferViews",
      "target": 34962
    },
    {
      "buffer": 0,
      "byteLength": 493408,
      "byteOffset": 1647320,
      "byteStride": 16,
      "name": "floatBufferViews",
      "target": 34962
    }
  ],
  "buffers": [
    {
      "byteLength": 2140728,
      "uri": "scene.bin"
    }
  ],
  "images": [
    {
      "uri": "textures/T_Homelander_Albedo_png_1001_baseColor.jpeg"
    },
    {
      "uri": "textures/T_Homelander_Albedo_png_1001_metallicRoughness.png"
    },
    {
      "uri": "textures/T_Homelander_Albedo_png_1001_normal.png"
    }
  ],
  "materials": [
    {
      "doubleSided": true,
      "name": "T_Homelander_Albedo_png_1001",
      "normalTexture": {
        "index": 2
      },
      "occlusionTexture": {
        "index": 1
      },
      "pbrMetallicRoughness": {
        "baseColorTexture": {
          "index": 0
        },
        "metallicRoughnessTexture": {
          "index": 1
        }
      }
    }
  ],
  "meshes": [
    {
      "name": "defaultMaterial",
      "primitives": [
        {
          "attributes": {
            "NORMAL": 1,
            "POSITION": 0,
            "TANGENT": 2,
            "TEXCOORD_0": 3
          },
          "indices": 4,
          "material": 0,
          "mode": 4
        }
      ]
    }
  ],
  "nodes": [
    {
      "children": [
        1
      ],
      "matrix": [
        1.0,
        0.0,
        0.0,
        0.0,
        0.0,
        2.220446049250313e-16,
        -1.0,
        0.0,
        0.0,
        1.0,
        2.220446049250313e-16,
        0.0,
        0.0,
        0.0,
        0.0,
        1.0
      ],
      "name": "Sketchfab_model"
    },
    {
      "children": [
        2
      ],
      "matrix": [
        1.0,
        0.0,
        0.0,
        0.0,
        0.0,
        -4.371139006309477e-08,
        0.999999999999999,
        0.0,
        0.0,
        -0.999999999999999,
        -4.371139006309477e-08,
        0.0,
        0.0,
        0.0,
        0.0,
        1.0
      ],
      "name": "Collada visual scene group"
    },
    {
      "children": [
        3
      ],
      "name": "rdmobj00"
    },
    {
      "mesh": 0,
      "name": "defaultMaterial"
    }
  ],
  "samplers": [
    {
      "magFilter": 9729,
      "minFilter": 9987,
      "wrapS": 10497,
      "wrapT": 10497
    }
  ],
  "scene": 0,
  "scenes": [
    {
      "name": "Sketchfab_Scene",
      "nodes": [
        0
      ]
    }
  ],
  "textures": [
    {
      "sampler": 0,
      "source": 0
    },
    {
      "sampler": 0,
      "source": 1
    },
    {
      "sampler": 0,
      "source": 2
    }
  ]
}
